<svg width="30" height="30" viewBox="0 0 30 30" fill="none" xmlns="http://www.w3.org/2000/svg">
<path d="M1.76465 30H6.17641V26.4706H4.41171V24.7059H6.17641V21.1765H1.76465V30Z" fill="#FFBB18"/>
<path d="M7.94092 24.7059H9.70562V26.4706H7.94092V30H12.3527V21.1765H7.94092V24.7059Z" fill="#FFBB18"/>
<path d="M22.0588 12.6653L18.5293 14.43L14.9999 12.6653L11.4705 14.43L7.94112 12.6653L4.41171 14.43L1.76465 13.1065V15.8823H28.2352V13.1065L25.5882 14.43L22.0588 12.6653Z" fill="#FFBB18"/>
<path d="M0 7.05884V10.2512L4.41176 12.4571L7.94117 10.6924L11.4706 12.4571L15 10.6924L18.5294 12.4571L22.0588 10.6924L25.5882 12.4571L30 10.2512V7.05884H0Z" fill="#76B261"/>
<path d="M26.0605 0H3.93957L0.410156 5.29412H29.5899L26.0605 0Z" fill="#FFBB18"/>
<path d="M20.9525 25.7128L23.1159 23.5318C23.2884 23.36 23.3805 23.1314 23.3755 22.8881C23.3707 22.6538 23.2745 22.4388 23.1047 22.283C22.7669 21.973 22.248 21.9845 21.9233 22.3092L20.9524 23.2801L19.9817 22.3092C19.8145 22.142 19.5958 22.0579 19.377 22.0579C19.1707 22.0579 18.9643 22.1326 18.8004 22.2829C18.6304 22.4389 18.5343 22.6538 18.5295 22.8881C18.5245 23.1315 18.6167 23.36 18.7891 23.5318L20.9525 25.7128Z" fill="#ED1C24"/>
<path d="M1.76465 19.4117H14.1176V29.9999H28.2352V17.647H1.76465V19.4117ZM17.6072 20.9827C18.5518 20.1157 19.9576 20.0677 20.9526 20.8199C21.9475 20.0677 23.3532 20.1157 24.2979 20.9827C24.826 21.4674 25.125 22.1312 25.1399 22.8517C25.1546 23.57 24.8716 24.2727 24.3631 24.7802L20.9526 28.2185L17.5399 24.7782C17.0341 24.2742 16.7504 23.5707 16.7652 22.8517C16.78 22.1311 17.0791 21.4674 17.6072 20.9827Z" fill="#FFBB18"/>
</svg>
